<svg width="21" height="13" viewBox="0 0 21 13" fill="none" xmlns="http://www.w3.org/2000/svg">
<path d="M19.0833 0.943709L10.3162 10.6764L1.54901 0.943709C1.39237 0.769467 1.1821 0.671919 0.963132 0.671919C0.744168 0.671919 0.533892 0.769467 0.377251 0.943709C0.301406 1.02834 0.241152 1.12935 0.200017 1.24084C0.158883 1.35232 0.137695 1.47203 0.137695 1.59295C0.137695 1.71388 0.158883 1.83359 0.200017 1.94507C0.241152 2.05655 0.301406 2.15757 0.377251 2.2422L9.70399 12.5981C9.86778 12.78 10.0875 12.8817 10.3162 12.8817C10.5449 12.8817 10.7646 12.78 10.9284 12.5981L20.2551 2.2442C20.3315 2.1595 20.3922 2.05824 20.4337 1.94639C20.4751 1.83453 20.4965 1.71436 20.4965 1.59295C20.4965 1.47155 20.4751 1.35137 20.4337 1.23952C20.3922 1.12767 20.3315 1.0264 20.2551 0.941711C20.0985 0.767469 19.8882 0.669922 19.6692 0.669922C19.4503 0.669922 19.24 0.767469 19.0833 0.941711V0.943709Z" fill="#FFC700"/>
</svg>
