<svg width="34" height="33" viewBox="0 0 34 33" fill="none" xmlns="http://www.w3.org/2000/svg">
<path d="M17.0308 16.3336C18.6254 16.3336 20.1547 15.7001 21.2823 14.5726C22.4099 13.445 23.0433 11.9157 23.0433 10.3211C23.0433 8.72649 22.4099 7.19719 21.2823 6.06963C20.1547 4.94207 18.6254 4.30861 17.0308 4.30861C15.4362 4.30861 13.9069 4.94207 12.7793 6.06963C11.6518 7.19719 11.0183 8.72649 11.0183 10.3211C11.0183 11.9157 11.6518 13.445 12.7793 14.5726C13.9069 15.7001 15.4362 16.3336 17.0308 16.3336ZM17.0308 18.3378C14.9047 18.3378 12.8656 17.4932 11.3622 15.9897C9.85877 14.4863 9.01416 12.4473 9.01416 10.3211C9.01416 8.19496 9.85877 6.15589 11.3622 4.65247C12.8656 3.14905 14.9047 2.30444 17.0308 2.30444C19.157 2.30444 21.196 3.14905 22.6995 4.65247C24.2029 6.15589 25.0475 8.19496 25.0475 10.3211C25.0475 12.4473 24.2029 14.4863 22.6995 15.9897C21.196 17.4932 19.157 18.3378 17.0308 18.3378Z" fill="white"/>
<path d="M17.0309 16.3333C17.2967 16.3333 17.5515 16.4388 17.7395 16.6268C17.9274 16.8147 18.033 17.0696 18.033 17.3353V25.352C18.033 25.6178 17.9274 25.8727 17.7395 26.0606C17.5515 26.2485 17.2967 26.3541 17.0309 26.3541C16.7651 26.3541 16.5102 26.2485 16.3223 26.0606C16.1344 25.8727 16.0288 25.6178 16.0288 25.352V17.3353C16.0288 17.0696 16.1344 16.8147 16.3223 16.6268C16.5102 16.4388 16.7651 16.3333 17.0309 16.3333Z" fill="white"/>
<path d="M13.0225 20.6267V22.6609C9.44509 23.2341 7.01003 24.4727 7.01003 25.3525C7.01003 26.533 11.3911 28.3588 17.0309 28.3588C22.6706 28.3588 27.0517 26.533 27.0517 25.3525C27.0517 24.4707 24.6166 23.2341 21.0392 22.6609V20.6267C25.7089 21.3141 29.0559 23.172 29.0559 25.3525C29.0559 28.1183 23.6727 30.363 17.0309 30.363C10.3891 30.363 5.00586 28.1183 5.00586 25.3525C5.00586 23.17 8.35282 21.3141 13.0225 20.6267Z" fill="white"/>
</svg>
